<svg width="157" height="43" viewBox="0 0 157 43" fill="none" xmlns="http://www.w3.org/2000/svg">
<path fill-rule="evenodd" clip-rule="evenodd" d="M38.2874 42.9728C36.732 42.9728 35.2692 42.3669 34.1702 41.2675C33.0694 40.1693 32.4642 38.7076 32.4642 37.1515C32.4642 35.598 33.0694 34.1363 34.1673 33.0388C35.2674 31.9387 36.7302 31.3328 38.2852 31.3328C39.8402 31.3328 41.3016 31.9368 42.3998 33.0362C44.6696 35.3067 44.6696 39.0007 42.3998 41.2701C41.3016 42.3687 39.841 42.9728 38.2874 42.9728Z" fill="#6A7489"/>
<path fill-rule="evenodd" clip-rule="evenodd" d="M6.66783 11.9367C5.11245 11.9367 3.64998 11.3307 2.54989 10.2307C1.45054 9.13243 0.844604 7.67071 0.844604 6.11535C0.844604 4.56074 1.44906 3.09976 2.5473 2.00265C3.64813 0.90183 5.11134 0.295898 6.66709 0.295898C8.22061 0.295898 9.68234 0.900719 10.7798 1.99895C11.8807 3.09902 12.4866 4.56148 12.4866 6.11609C12.4866 7.67145 11.8807 9.13317 10.7806 10.2332C9.68234 11.3318 8.22135 11.9367 6.66783 11.9367Z" fill="#6A7489"/>
<path fill-rule="evenodd" clip-rule="evenodd" d="M38.027 11.7655C36.4705 11.7655 35.0091 11.1596 33.9098 10.0603C31.6411 7.79088 31.6393 4.09867 33.9065 1.83077C35.0065 0.730695 36.4686 0.124023 38.0251 0.124023C39.5798 0.124023 41.0415 0.729585 42.1408 1.82892C44.4091 4.09755 44.4091 7.79162 42.1408 10.064C41.0422 11.1603 39.5805 11.7655 38.027 11.7655Z" fill="#6A7489"/>
<path fill-rule="evenodd" clip-rule="evenodd" d="M6.81906 42.9727C5.26369 42.9727 3.80122 42.3668 2.70002 41.2674C1.60104 40.1685 0.996209 38.7075 0.996949 37.1521C0.996949 35.5979 1.604 34.1362 2.70372 33.0368C2.93395 32.8051 3.19343 32.593 3.5236 32.3706C3.6228 32.301 3.7146 32.2462 3.80936 32.1885C4.02479 32.0648 4.23948 31.9519 4.43973 31.8601C4.54855 31.8116 4.66071 31.7609 4.77879 31.7162C4.98792 31.6384 5.22149 31.5688 5.48837 31.5059C5.5413 31.4915 5.58831 31.4789 5.63606 31.4652C5.66604 31.457 5.69491 31.4474 5.72527 31.44L7.02117 31.3516C7.18551 31.359 7.36133 31.3797 7.54863 31.4037L7.62266 31.4141C7.66671 31.4193 7.7263 31.4237 7.7859 31.4274L7.83809 31.4311L7.89768 31.4426H7.94914C8.04389 31.4463 8.13828 31.4482 8.2323 31.4482C10.4658 31.4482 12.6704 30.4969 14.2817 28.8394C15.8859 27.1892 16.7695 24.9695 16.7062 22.7478L16.7043 22.682L16.6921 22.6131C16.6799 22.5513 16.6766 22.488 16.6721 22.4258C16.6669 22.3511 16.6603 22.277 16.6514 22.2023L16.637 22.0716C16.6244 21.9594 16.6118 21.8506 16.6044 21.7385L16.7036 20.4385C16.7099 20.4059 16.7217 20.3763 16.7306 20.3449L16.7539 20.2645C16.8139 20.0184 16.8776 19.7711 16.9708 19.5324C17.0186 19.3962 17.0645 19.2962 17.1141 19.1933C17.2174 18.9661 17.3247 18.7595 17.4513 18.5478C17.5061 18.4556 17.5594 18.3627 17.6227 18.2728C17.8577 17.93 18.0717 17.6676 18.2934 17.4459C19.3927 16.3465 20.8541 15.7417 22.4113 15.7417C23.966 15.7417 25.4292 16.3458 26.5293 17.444C28.7964 19.7138 28.7946 23.4071 26.5241 25.6772C26.295 25.9071 26.0344 26.1184 25.7035 26.3446C25.6068 26.4105 25.515 26.4652 25.4229 26.5197C25.2137 26.6448 25.0028 26.7558 24.7929 26.8524C24.6792 26.9035 24.5656 26.9561 24.4557 26.9964C24.2328 27.0793 23.9967 27.15 23.7487 27.2055L23.6091 27.2444C23.5773 27.2537 23.5466 27.2633 23.5151 27.2714L22.207 27.3643C22.0534 27.358 21.8927 27.3373 21.7225 27.3155L21.6062 27.301C21.5674 27.2947 21.5063 27.2903 21.4449 27.287L21.399 27.2825L21.332 27.2696H21.2798C21.1843 27.2662 21.0903 27.2651 20.9955 27.2651C18.762 27.2651 16.5581 28.2157 14.948 29.8728C13.343 31.5237 12.4594 33.7457 12.5227 35.9673L12.5242 36.0336L12.5368 36.0991C12.5486 36.1624 12.5512 36.2245 12.5568 36.2875C12.562 36.3622 12.5686 36.4363 12.5775 36.5103C12.5801 36.5543 12.589 36.6347 12.599 36.7131C12.609 36.8023 12.6208 36.889 12.6208 36.9782V37.01L12.5268 38.2559C12.5209 38.2818 12.479 38.4254 12.4672 38.4706C12.4043 38.7393 12.3332 38.9773 12.2536 39.1909C12.2103 39.3101 12.1663 39.4126 12.1148 39.52C12.0138 39.7409 11.9038 39.953 11.7795 40.1685C11.7243 40.2566 11.6595 40.3602 11.5936 40.4598C11.3775 40.7733 11.1628 41.0376 10.9326 41.2685C9.83617 42.3668 8.37407 42.9727 6.81906 42.9727Z" fill="#6A7489"/>
<path fill-rule="evenodd" clip-rule="evenodd" d="M22.5383 42.9729C20.9818 42.9729 19.5194 42.367 18.4193 41.2669C17.3199 40.168 16.7151 38.707 16.7144 37.1516C16.7132 35.5981 17.3184 34.1371 18.4167 33.0408C18.641 32.8153 18.8953 32.6081 19.2436 32.3671C19.3298 32.3086 19.4228 32.252 19.5201 32.1961C19.7341 32.068 19.9395 31.9596 20.1531 31.8615C20.2667 31.81 20.3777 31.7586 20.4906 31.7164C20.7068 31.6368 20.9422 31.5676 21.1921 31.5124C21.1921 31.5124 21.3968 31.4528 21.4231 31.4465L22.7393 31.3503C22.8944 31.3573 23.0621 31.3799 23.2372 31.4021L23.3345 31.4151C23.3993 31.4214 23.4533 31.4269 23.5077 31.4277C23.5292 31.4291 23.5511 31.4291 23.5718 31.4314L23.6132 31.4366L23.668 31.4421C23.7643 31.4447 23.862 31.4477 23.9586 31.4477C26.1876 31.4465 28.3886 30.4971 29.9961 28.8414C31.6004 27.1924 32.4843 24.9697 32.421 22.7481L32.4129 22.4768L32.3884 22.4468C32.3873 22.4375 32.3873 22.4268 32.3866 22.4168C32.3832 22.3539 32.3795 22.2898 32.3732 22.2258L32.3514 22.0393C32.3396 21.9367 32.3262 21.8357 32.3225 21.7328L32.4129 20.4728C32.4199 20.4424 32.465 20.2862 32.4758 20.2396C32.5498 19.9383 32.615 19.7181 32.6886 19.5226C32.7301 19.4053 32.7808 19.2979 32.8322 19.1854C32.9251 18.9822 33.034 18.776 33.1676 18.5488L33.1928 18.5073C33.2379 18.4307 33.2809 18.3548 33.3342 18.2811C33.5725 17.9339 33.7843 17.6723 34.0078 17.4487C35.1083 16.3486 36.5715 15.7427 38.1269 15.7427C39.6815 15.7427 41.1421 16.3475 42.2415 17.4461C44.5098 19.7147 44.5098 23.4099 42.2415 25.6811C42.0212 25.9003 41.7588 26.1124 41.4172 26.3485C41.3513 26.3933 41.288 26.4314 41.225 26.4692L41.1233 26.5325C40.9286 26.648 40.7165 26.7586 40.5103 26.8534C40.3937 26.9056 40.2838 26.9563 40.1683 26.9992C39.9647 27.0762 39.74 27.141 39.4568 27.2087C39.4002 27.2221 39.3543 27.2365 39.3091 27.2502C39.2773 27.258 39.2477 27.268 39.217 27.2754L37.9233 27.3646C37.7338 27.3564 37.5291 27.3287 37.3307 27.3024C37.2633 27.2942 37.2108 27.2916 37.1593 27.2887C37.1397 27.2879 37.1197 27.2879 37.1001 27.2853L36.9898 27.2735C36.8935 27.2698 36.7977 27.268 36.7022 27.268C34.4713 27.268 32.2703 28.2185 30.6606 29.8738C29.0578 31.525 28.175 33.7459 28.2398 35.9694L28.2416 36.0345L28.2542 36.0986C28.2668 36.1641 28.2694 36.2318 28.2742 36.2977C28.2783 36.3662 28.2838 36.4328 28.2912 36.4987C28.2957 36.5538 28.3038 36.6242 28.3108 36.6926C28.3227 36.7911 28.3345 36.8899 28.3371 36.9884L28.2416 38.2658C28.2342 38.2939 28.1846 38.466 28.1846 38.466C28.1224 38.7366 28.0532 38.9739 27.971 39.1967C27.9322 39.3014 27.8863 39.4021 27.8393 39.5076L27.823 39.5446C27.7267 39.753 27.6183 39.9585 27.4976 40.1594C27.438 40.259 27.3795 40.356 27.3173 40.4482C27.089 40.7791 26.8743 41.0426 26.6444 41.2743C25.551 42.3689 24.0918 42.9729 22.5383 42.9729Z" fill="#6A7489"/>
<path fill-rule="evenodd" clip-rule="evenodd" d="M6.82164 27.2571C5.26626 27.2571 3.80416 26.6523 2.70518 25.5537C1.60546 24.4529 0.999154 22.9912 0.998414 21.4358C0.997673 19.8823 1.60139 18.4224 2.70074 17.3242C2.92616 17.0988 3.1886 16.886 3.52618 16.6531C3.61427 16.5939 3.71347 16.5332 3.81268 16.4736C4.01367 16.3548 4.2191 16.2456 4.4386 16.1449C4.55113 16.0931 4.66291 16.0428 4.78173 15.9987C4.99568 15.9202 5.23184 15.8507 5.47799 15.7959L5.62568 15.7544C5.65307 15.7463 5.67935 15.737 5.70637 15.7307L7.02374 15.6363C7.19475 15.6434 7.37983 15.6678 7.57341 15.6937L7.61413 15.6993C7.68187 15.7063 7.73406 15.7093 7.78736 15.7118C7.80624 15.7126 7.82512 15.7126 7.844 15.7155L7.90063 15.7255L7.95393 15.7274C8.05165 15.73 8.14789 15.7318 8.2445 15.7318C10.4728 15.7318 12.6737 14.7824 14.282 13.126C15.8855 11.4748 16.7683 9.25315 16.7043 7.03041L16.7025 6.96638L16.6899 6.90345C16.6762 6.83275 16.6743 6.76169 16.6699 6.68951C16.6666 6.63102 16.6629 6.57217 16.6566 6.5111L16.6366 6.33157C16.6229 6.22534 16.6096 6.11689 16.607 6.00881L16.6943 4.78621L16.7025 4.75808V4.73402C16.7095 4.70589 16.7572 4.54339 16.7572 4.54339C16.8313 4.23062 16.8972 4.00446 16.9712 3.80495C17.0126 3.69502 17.0641 3.58508 17.1163 3.47145C17.2111 3.26231 17.3221 3.05022 17.4502 2.83479L17.4698 2.80148C17.5201 2.71746 17.5701 2.6338 17.6267 2.54978C17.8573 2.21517 18.0694 1.95384 18.2912 1.73323C19.3916 0.633157 20.8537 0.0268555 22.4102 0.0268555C23.9656 0.0268555 25.4273 0.632046 26.5274 1.73101C28.7961 4.00076 28.7942 7.69483 26.5248 9.96383C26.3001 10.1892 26.0325 10.4062 25.7049 10.6282C25.6157 10.6912 25.5391 10.7363 25.4595 10.7833L25.4166 10.8085C25.203 10.9358 24.9924 11.0465 24.7943 11.1376C24.677 11.1916 24.5671 11.2412 24.4553 11.2827C24.2369 11.3641 24.0052 11.4326 23.7439 11.4929C23.6887 11.5062 23.6391 11.5207 23.5899 11.5344C23.5599 11.5425 23.5292 11.5521 23.4984 11.5595L22.2081 11.6499C22.0452 11.6417 21.8701 11.6202 21.6869 11.5965L21.6077 11.5866C21.5481 11.5795 21.4933 11.5769 21.44 11.5732C21.4182 11.5721 21.3967 11.5721 21.3753 11.5684L21.3319 11.5632L21.2749 11.5588C21.1787 11.5551 21.0828 11.5532 20.9866 11.5532C18.7575 11.5532 16.5563 12.5027 14.9479 14.1576C13.3437 15.8081 12.4598 18.0312 12.5231 20.2547L12.5249 20.3194L12.5364 20.3835C12.5501 20.4486 12.5527 20.516 12.5575 20.5819C12.5616 20.6504 12.5671 20.7174 12.5745 20.7858C12.5797 20.8399 12.5879 20.9091 12.5964 20.9779C12.6067 21.0753 12.6197 21.1708 12.6212 21.2674L12.5283 22.5359C12.5212 22.5685 12.5105 22.6018 12.5005 22.6362L12.4679 22.7495C12.4032 23.0337 12.3347 23.2699 12.2569 23.4798C12.2155 23.5901 12.1622 23.7033 12.1093 23.8199C12.0138 24.0291 11.9053 24.2356 11.7791 24.4466C11.7187 24.5476 11.6628 24.6424 11.6025 24.7316C11.3634 25.0777 11.1576 25.332 10.9333 25.5548C9.8343 26.653 8.37442 27.2571 6.82164 27.2571Z" fill="#6A7489"/>
<path fill-rule="evenodd" clip-rule="evenodd" d="M55.361 19.2778H52.009V16.8301H61.7844V19.2778H58.448V27.7435H55.361V19.2778ZM71.7002 25.3581V27.7435H62.9381V16.8301H71.4975V19.2154H65.9939V21.0551H70.8427V23.3625H65.9939V25.3581H71.7002ZM78.8563 27.9618C77.713 27.9618 76.6866 27.7201 75.7772 27.2368C74.8677 26.7535 74.1531 26.0805 73.6334 25.2178C73.1137 24.3551 72.8539 23.3781 72.8539 22.2868C72.8539 21.1954 73.1137 20.2184 73.6334 19.3558C74.1531 18.4931 74.8677 17.8201 75.7772 17.3368C76.6866 16.8535 77.713 16.6118 78.8563 16.6118C79.8541 16.6118 80.7532 16.7885 81.5535 17.1419C82.3539 17.4953 83.0191 18.0046 83.5492 18.6698L81.5847 20.4471C80.8779 19.5948 80.0205 19.1687 79.0122 19.1687C78.4198 19.1687 77.8923 19.2986 77.4298 19.5584C76.9672 19.8183 76.6087 20.1847 76.354 20.6576C76.0994 21.1305 75.972 21.6736 75.972 22.2868C75.972 22.9 76.0994 23.4431 76.354 23.916C76.6087 24.3889 76.9672 24.7553 77.4298 25.0152C77.8923 25.275 78.4198 25.4049 79.0122 25.4049C80.0205 25.4049 80.8779 24.9788 81.5847 24.1265L83.5492 25.9038C83.0191 26.569 82.3539 27.0783 81.5535 27.4317C80.7532 27.7851 79.8541 27.9618 78.8563 27.9618ZM95.3046 16.8301V27.7435H92.2176V23.4873H88.0081V27.7435H84.9211V16.8301H88.0081V20.9304H92.2176V16.8301H95.3046ZM105.595 22.0685C106.197 22.266 106.675 22.596 107.029 23.0585C107.382 23.5211 107.559 24.0953 107.559 24.7813C107.559 25.7271 107.195 26.4573 106.468 26.9718C105.74 27.4863 104.68 27.7435 103.287 27.7435H97.8615V16.8301H102.975C104.264 16.8301 105.257 17.0821 105.953 17.5862C106.65 18.0903 106.998 18.7841 106.998 19.6676C106.998 20.2081 106.873 20.6862 106.624 21.1019C106.374 21.5177 106.031 21.8399 105.595 22.0685ZM99.8883 18.4203V21.4293H102.757C103.464 21.4293 104.007 21.302 104.386 21.0473C104.766 20.7927 104.955 20.4211 104.955 19.9326C104.955 19.4337 104.766 19.0569 104.386 18.8023C104.007 18.5476 103.464 18.4203 102.757 18.4203H99.8883ZM103.162 26.1533C104.732 26.1533 105.517 25.6284 105.517 24.5786C105.517 23.5288 104.732 23.004 103.162 23.004H99.8883V26.1533H103.162ZM116.867 27.7435L114.637 24.5474C114.544 24.5578 114.403 24.563 114.216 24.563H111.753V27.7435H109.726V16.8301H114.216C115.162 16.8301 115.986 16.986 116.687 17.2978C117.389 17.6096 117.927 18.0565 118.301 18.6386C118.675 19.2206 118.862 19.9118 118.862 20.7121C118.862 21.5333 118.662 22.24 118.262 22.8325C117.862 23.4249 117.288 23.8666 116.539 24.1577L119.049 27.7435H116.867ZM116.82 20.7121C116.82 20.0158 116.591 19.4805 116.134 19.1063C115.677 18.7321 115.006 18.5451 114.123 18.5451H111.753V22.8948H114.123C115.006 22.8948 115.677 22.7051 116.134 22.3258C116.591 21.9464 116.82 21.4085 116.82 20.7121ZM128.201 25.2178H122.744L121.669 27.7435H119.579L124.491 16.8301H126.486L131.413 27.7435H129.293L128.201 25.2178ZM127.531 23.6276L125.473 18.8569L123.43 23.6276H127.531ZM142.498 16.8301V27.7435H140.83L134.812 20.3536V27.7435H132.8V16.8301H134.469L140.487 24.22V16.8301H142.498ZM145.429 16.8301H150.2C151.364 16.8301 152.398 17.0561 153.302 17.5083C154.207 17.9604 154.908 18.5996 155.407 19.4259C155.906 20.2522 156.155 21.2058 156.155 22.2868C156.155 23.3678 155.906 24.3214 155.407 25.1477C154.908 25.974 154.207 26.6132 153.302 27.0653C152.398 27.5174 151.364 27.7435 150.2 27.7435H145.429V16.8301ZM150.106 26.0285C150.907 26.0285 151.611 25.8752 152.219 25.5686C152.827 25.262 153.295 24.8255 153.622 24.259C153.949 23.6925 154.113 23.0352 154.113 22.2868C154.113 21.5384 153.949 20.881 153.622 20.3146C153.295 19.7481 152.827 19.3116 152.219 19.005C151.611 18.6984 150.907 18.5451 150.106 18.5451H147.456V26.0285H150.106Z" fill="#6A7489"/>
</svg>
