<svg width="151" height="51" viewBox="0 0 151 51" fill="none" xmlns="http://www.w3.org/2000/svg">
<path fill-rule="evenodd" clip-rule="evenodd" d="M47.8096 14.197C47.8096 14.197 50.6509 14.6108 50.0446 16.4056C49.513 17.9792 49.232 22.1464 37.5492 23.0303C25.867 23.9131 20.0762 28.6619 19.1619 35.6171C18.2481 42.5751 24.163 47.2435 30.6751 47.7648C30.7308 47.7694 30.786 47.7734 30.8417 47.7774C32.0165 47.8631 32.117 49.547 30.9584 49.7585C27.0998 50.4619 22.3021 50.5861 17.1302 48.9792C5.40668 45.3366 1.66703 37.1976 2.40669 27.9993C2.40669 27.9993 1.31071 29.4269 0.775076 31.5441C0.775076 31.5441 -0.35251 24.17 3.34806 19.093C3.34806 19.093 1.72852 20.093 0.775076 21.5935C0.775076 21.5935 1.99462 15.7412 7.37737 11.8786C12.7619 8.01135 19.5774 6.78262 19.5774 6.78262C19.5774 6.78262 19.8584 3.20043 24.5366 0.799284C24.8751 0.625721 25.2682 0.90733 25.2193 1.28492C25.0038 2.95848 25.5078 5.62285 27.1877 6.90848C27.1877 6.90848 33.5877 7.23951 36.4314 9.77974C39.2762 12.3188 47.8096 14.197 47.8096 14.197ZM48.228 15.3441L47.3394 15.2591C47.405 15.5677 47.4992 16.2458 48.0843 16.6378C48.2751 16.7654 48.6831 16.8912 49.0234 16.8797C49.1601 16.6096 49.2239 16.3723 49.2774 16.2062C49.4883 15.5487 48.228 15.3441 48.228 15.3441ZM35.8038 18.8504C32.2699 17.9533 22.2981 16.993 17.3619 21.6378C17.1182 21.8677 16.8917 22.1142 16.6751 22.3705C14.9423 24.1907 13.2044 27.0234 12.4527 31.3642C12.4527 31.3642 13.0406 30.355 14.0371 29.1102C13.5958 33.532 15.009 38.3246 18.0337 40.8533C18.0389 40.8579 16.5423 38.5602 17.3285 34.401C18.6302 27.5154 24.0331 22.6987 35.7159 21.8154C39.978 21.4924 42.7078 21.2361 44.4917 20.32C44.4739 20.3223 38.8182 19.6154 35.8038 18.8504Z" fill="#6A7489"/>
<path fill-rule="evenodd" clip-rule="evenodd" d="M81.9732 18.7145L74.6932 32.7145H69.6332L68.8332 25.3345L64.9932 32.7145H59.9332L58.2532 18.7145H62.9132L63.8132 26.6945L67.9732 18.7145H72.3132L73.1132 26.8145L77.3332 18.7145H81.9732ZM87.8932 33.0345C86.4666 33.0345 85.2166 32.7712 84.1432 32.2445C83.0699 31.7179 82.2432 30.9812 81.6632 30.0345C81.0832 29.0879 80.7932 28.0012 80.7932 26.7745C80.7932 25.1479 81.1699 23.6979 81.9232 22.4245C82.6766 21.1512 83.7232 20.1612 85.0632 19.4545C86.4032 18.7479 87.9199 18.3945 89.6132 18.3945C91.0399 18.3945 92.2899 18.6579 93.3632 19.1845C94.4366 19.7112 95.2632 20.4479 95.8432 21.3945C96.4232 22.3412 96.7132 23.4279 96.7132 24.6545C96.7132 26.2812 96.3366 27.7312 95.5832 29.0045C94.8299 30.2779 93.7832 31.2679 92.4432 31.9745C91.1032 32.6812 89.5866 33.0345 87.8932 33.0345ZM88.2932 29.2145C89.0399 29.2145 89.6899 29.0212 90.2432 28.6345C90.7966 28.2479 91.2199 27.7279 91.5132 27.0745C91.8066 26.4212 91.9532 25.7079 91.9532 24.9345C91.9532 24.1079 91.7099 23.4479 91.2232 22.9545C90.7366 22.4612 90.0666 22.2145 89.2132 22.2145C88.4666 22.2145 87.8166 22.4079 87.2632 22.7945C86.7099 23.1812 86.2866 23.7012 85.9932 24.3545C85.6999 25.0079 85.5532 25.7212 85.5532 26.4945C85.5532 27.3212 85.7966 27.9812 86.2832 28.4745C86.7699 28.9679 87.4399 29.2145 88.2932 29.2145ZM99.7732 18.7145H104.493L102.433 29.0545H108.753L108.013 32.7145H96.9732L99.7732 18.7145ZM126.173 18.7145L117.453 32.7145H112.813L109.693 18.7145H114.533L116.273 26.8745L121.333 18.7145H126.173ZM130.553 22.2745L130.233 23.9145H136.153L135.473 27.3145H129.533L129.173 29.1545H136.193L135.473 32.7145H123.833L126.633 18.7145H138.013L137.293 22.2745H130.553ZM142.853 33.0345C141.64 33.0345 140.5 32.9045 139.433 32.6445C138.367 32.3845 137.487 32.0412 136.793 31.6145L138.613 28.1345C140.12 29.0012 141.693 29.4345 143.333 29.4345C143.933 29.4345 144.393 29.3612 144.713 29.2145C145.033 29.0679 145.193 28.8679 145.193 28.6145C145.193 28.3745 145.03 28.1812 144.703 28.0345C144.377 27.8879 143.86 27.7279 143.153 27.5545C142.22 27.3145 141.447 27.0712 140.833 26.8245C140.22 26.5779 139.683 26.1979 139.223 25.6845C138.763 25.1712 138.533 24.4945 138.533 23.6545C138.533 22.6012 138.817 21.6779 139.383 20.8845C139.95 20.0912 140.767 19.4779 141.833 19.0445C142.9 18.6112 144.16 18.3945 145.613 18.3945C146.653 18.3945 147.623 18.4979 148.523 18.7045C149.423 18.9112 150.2 19.2079 150.853 19.5945L149.153 23.0345C148.607 22.6879 148.003 22.4279 147.343 22.2545C146.683 22.0812 146.007 21.9945 145.313 21.9945C144.66 21.9945 144.153 22.0879 143.793 22.2745C143.433 22.4612 143.253 22.6812 143.253 22.9345C143.253 23.1879 143.417 23.3879 143.743 23.5345C144.07 23.6812 144.607 23.8412 145.353 24.0145C146.26 24.2279 147.023 24.4545 147.643 24.6945C148.263 24.9345 148.8 25.3079 149.253 25.8145C149.707 26.3212 149.933 26.9879 149.933 27.8145C149.933 28.8545 149.647 29.7679 149.073 30.5545C148.5 31.3412 147.68 31.9512 146.613 32.3845C145.547 32.8179 144.293 33.0345 142.853 33.0345Z" fill="#6A7489"/>
<path fill-rule="evenodd" clip-rule="evenodd" d="M61.3382 38.4135C61.9449 38.4135 62.4732 38.5135 62.9232 38.7135C63.3732 38.9135 63.7182 39.2001 63.9582 39.5735C64.1982 39.9468 64.3182 40.3901 64.3182 40.9035C64.3182 41.4101 64.1982 41.8518 63.9582 42.2285C63.7182 42.6051 63.3732 42.8935 62.9232 43.0935C62.4732 43.2935 61.9449 43.3935 61.3382 43.3935H59.7582V45.4135H58.4582V38.4135H61.3382ZM61.2782 42.2935C61.8449 42.2935 62.2749 42.1735 62.5682 41.9335C62.8615 41.6935 63.0082 41.3501 63.0082 40.9035C63.0082 40.4568 62.8615 40.1135 62.5682 39.8735C62.2749 39.6335 61.8449 39.5135 61.2782 39.5135H59.7582V42.2935H61.2782ZM70.2582 43.7935H66.7582L66.0682 45.4135H64.7282L67.8782 38.4135H69.1582L72.3182 45.4135H70.9582L70.2582 43.7935ZM69.8282 42.7735L68.5082 39.7135L67.1982 42.7735H69.8282ZM77.7882 45.4135L76.3582 43.3635C76.2982 43.3701 76.2082 43.3735 76.0882 43.3735H74.5082V45.4135H73.2082V38.4135H76.0882C76.6949 38.4135 77.2232 38.5135 77.6732 38.7135C78.1232 38.9135 78.4682 39.2001 78.7082 39.5735C78.9482 39.9468 79.0682 40.3901 79.0682 40.9035C79.0682 41.4301 78.9399 41.8835 78.6832 42.2635C78.4265 42.6435 78.0582 42.9268 77.5782 43.1135L79.1882 45.4135H77.7882ZM77.7582 40.9035C77.7582 40.4568 77.6115 40.1135 77.3182 39.8735C77.0249 39.6335 76.5949 39.5135 76.0282 39.5135H74.5082V42.3035H76.0282C76.5949 42.3035 77.0249 42.1818 77.3182 41.9385C77.6115 41.6951 77.7582 41.3501 77.7582 40.9035ZM81.9382 39.5135H79.6182V38.4135H85.5582V39.5135H83.2382V45.4135H81.9382V39.5135ZM92.7582 38.4135V45.4135H91.6882L87.8282 40.6735V45.4135H86.5382V38.4135H87.6082L91.4682 43.1535V38.4135H92.7582ZM99.8882 44.3235V45.4135H94.6382V38.4135H99.7482V39.5035H95.9382V41.3235H99.3182V42.3935H95.9382V44.3235H99.8882ZM105.918 45.4135L104.488 43.3635C104.428 43.3701 104.338 43.3735 104.218 43.3735H102.638V45.4135H101.338V38.4135H104.218C104.825 38.4135 105.353 38.5135 105.803 38.7135C106.253 38.9135 106.598 39.2001 106.838 39.5735C107.078 39.9468 107.198 40.3901 107.198 40.9035C107.198 41.4301 107.07 41.8835 106.813 42.2635C106.557 42.6435 106.188 42.9268 105.708 43.1135L107.318 45.4135H105.918ZM105.888 40.9035C105.888 40.4568 105.742 40.1135 105.448 39.8735C105.155 39.6335 104.725 39.5135 104.158 39.5135H102.638V42.3035H104.158C104.725 42.3035 105.155 42.1818 105.448 41.9385C105.742 41.6951 105.888 41.3501 105.888 40.9035ZM110.818 45.5135C110.278 45.5135 109.757 45.4368 109.253 45.2835C108.75 45.1301 108.352 44.9268 108.058 44.6735L108.508 43.6635C108.795 43.8901 109.147 44.0751 109.563 44.2185C109.98 44.3618 110.398 44.4335 110.818 44.4335C111.338 44.4335 111.727 44.3501 111.983 44.1835C112.24 44.0168 112.368 43.7968 112.368 43.5235C112.368 43.3235 112.297 43.1585 112.153 43.0285C112.01 42.8985 111.828 42.7968 111.608 42.7235C111.388 42.6501 111.088 42.5668 110.708 42.4735C110.175 42.3468 109.743 42.2201 109.413 42.0935C109.083 41.9668 108.8 41.7685 108.563 41.4985C108.327 41.2285 108.208 40.8635 108.208 40.4035C108.208 40.0168 108.313 39.6651 108.523 39.3485C108.733 39.0318 109.05 38.7801 109.473 38.5935C109.897 38.4068 110.415 38.3135 111.028 38.3135C111.455 38.3135 111.875 38.3668 112.288 38.4735C112.702 38.5801 113.058 38.7335 113.358 38.9335L112.948 39.9435C112.642 39.7635 112.322 39.6268 111.988 39.5335C111.655 39.4401 111.332 39.3935 111.018 39.3935C110.505 39.3935 110.123 39.4801 109.873 39.6535C109.623 39.8268 109.498 40.0568 109.498 40.3435C109.498 40.5435 109.57 40.7068 109.713 40.8335C109.857 40.9601 110.038 41.0601 110.258 41.1335C110.478 41.2068 110.778 41.2901 111.158 41.3835C111.678 41.5035 112.105 41.6285 112.438 41.7585C112.772 41.8885 113.057 42.0868 113.293 42.3535C113.53 42.6201 113.648 42.9801 113.648 43.4335C113.648 43.8201 113.543 44.1701 113.333 44.4835C113.123 44.7968 112.805 45.0468 112.378 45.2335C111.952 45.4201 111.432 45.5135 110.818 45.5135ZM122.948 45.5235L122.068 44.6735C121.415 45.2335 120.632 45.5135 119.718 45.5135C119.232 45.5135 118.795 45.4335 118.408 45.2735C118.022 45.1135 117.718 44.8918 117.498 44.6085C117.278 44.3251 117.168 44.0035 117.168 43.6435C117.168 43.2101 117.295 42.8285 117.548 42.4985C117.802 42.1685 118.215 41.8435 118.788 41.5235C118.508 41.2435 118.308 40.9818 118.188 40.7385C118.068 40.4951 118.008 40.2435 118.008 39.9835C118.008 39.4901 118.193 39.0918 118.563 38.7885C118.933 38.4851 119.425 38.3335 120.038 38.3335C120.605 38.3335 121.058 38.4718 121.398 38.7485C121.738 39.0251 121.908 39.4001 121.908 39.8735C121.908 40.2335 121.797 40.5535 121.573 40.8335C121.35 41.1135 120.985 41.3968 120.478 41.6835L121.988 43.1235C122.155 42.7968 122.285 42.4035 122.378 41.9435L123.388 42.2735C123.255 42.8935 123.045 43.4268 122.758 43.8735L123.638 44.7135L122.948 45.5235ZM120.038 39.2235C119.765 39.2235 119.548 39.2918 119.388 39.4285C119.228 39.5651 119.148 39.7435 119.148 39.9635C119.148 40.1235 119.192 40.2751 119.278 40.4185C119.365 40.5618 119.532 40.7568 119.778 41.0035C120.178 40.7835 120.457 40.5918 120.613 40.4285C120.77 40.2651 120.848 40.0868 120.848 39.8935C120.848 39.6868 120.777 39.5235 120.633 39.4035C120.49 39.2835 120.292 39.2235 120.038 39.2235ZM119.808 44.4935C120.388 44.4935 120.895 44.3168 121.328 43.9635L119.478 42.1935C119.078 42.4135 118.797 42.6251 118.633 42.8285C118.47 43.0318 118.388 43.2601 118.388 43.5135C118.388 43.8068 118.518 44.0435 118.778 44.2235C119.038 44.4035 119.382 44.4935 119.808 44.4935ZM130.758 45.5135C130.052 45.5135 129.413 45.3585 128.843 45.0485C128.273 44.7385 127.827 44.3101 127.503 43.7635C127.18 43.2168 127.018 42.6001 127.018 41.9135C127.018 41.2268 127.182 40.6101 127.508 40.0635C127.835 39.5168 128.283 39.0885 128.853 38.7785C129.423 38.4685 130.062 38.3135 130.768 38.3135C131.342 38.3135 131.865 38.4135 132.338 38.6135C132.812 38.8135 133.212 39.1035 133.538 39.4835L132.698 40.2735C132.192 39.7268 131.568 39.4535 130.828 39.4535C130.348 39.4535 129.918 39.5585 129.538 39.7685C129.158 39.9785 128.862 40.2701 128.648 40.6435C128.435 41.0168 128.328 41.4401 128.328 41.9135C128.328 42.3868 128.435 42.8101 128.648 43.1835C128.862 43.5568 129.158 43.8485 129.538 44.0585C129.918 44.2685 130.348 44.3735 130.828 44.3735C131.568 44.3735 132.192 44.0968 132.698 43.5435L133.538 44.3435C133.212 44.7235 132.81 45.0135 132.333 45.2135C131.857 45.4135 131.332 45.5135 130.758 45.5135ZM138.058 45.5135C137.345 45.5135 136.702 45.3585 136.128 45.0485C135.555 44.7385 135.105 44.3085 134.778 43.7585C134.452 43.2085 134.288 42.5935 134.288 41.9135C134.288 41.2335 134.452 40.6185 134.778 40.0685C135.105 39.5185 135.555 39.0885 136.128 38.7785C136.702 38.4685 137.345 38.3135 138.058 38.3135C138.772 38.3135 139.415 38.4685 139.988 38.7785C140.562 39.0885 141.012 39.5168 141.338 40.0635C141.665 40.6101 141.828 41.2268 141.828 41.9135C141.828 42.6001 141.665 43.2168 141.338 43.7635C141.012 44.3101 140.562 44.7385 139.988 45.0485C139.415 45.3585 138.772 45.5135 138.058 45.5135ZM138.058 44.3735C138.525 44.3735 138.945 44.2685 139.318 44.0585C139.692 43.8485 139.985 43.5551 140.198 43.1785C140.412 42.8018 140.518 42.3801 140.518 41.9135C140.518 41.4468 140.412 41.0251 140.198 40.6485C139.985 40.2718 139.692 39.9785 139.318 39.7685C138.945 39.5585 138.525 39.4535 138.058 39.4535C137.592 39.4535 137.172 39.5585 136.798 39.7685C136.425 39.9785 136.132 40.2718 135.918 40.6485C135.705 41.0251 135.598 41.4468 135.598 41.9135C135.598 42.3801 135.705 42.8018 135.918 43.1785C136.132 43.5551 136.425 43.8485 136.798 44.0585C137.172 44.2685 137.592 44.3735 138.058 44.3735Z" fill="#6A7489"/>
</svg>
