<svg width="32" height="32" viewBox="0 0 32 32" fill="none" xmlns="http://www.w3.org/2000/svg">
<rect x="0.75" y="0.75" width="30.5" height="30.5" rx="15.25" stroke="black" stroke-width="0.5"/>
<path fill-rule="evenodd" clip-rule="evenodd" d="M10.6407 15.7039H13.4787C13.505 14.9274 13.6335 14.2365 13.8176 13.6316H11.2632V13.6295C10.9068 14.2539 10.6869 14.9571 10.6407 15.7039ZM11.6581 13.0395H14.0247C14.2053 12.5846 14.4133 12.1894 14.622 11.8541C14.8338 11.5137 15.0461 11.2351 15.2306 11.0184C13.7654 11.2155 12.4914 11.9673 11.6581 13.0395ZM16 11.0872C15.9671 11.1202 15.931 11.1575 15.8923 11.1991C15.6964 11.409 15.4323 11.7268 15.1675 12.1525C15.008 12.4089 14.848 12.7045 14.7024 13.0395H17.2976C17.152 12.7045 16.992 12.4089 16.8325 12.1525C16.5677 11.7268 16.3036 11.409 16.1077 11.1991C16.069 11.1575 16.0329 11.1202 16 11.0872ZM17.5235 13.6316H14.4765C14.2801 14.2253 14.1392 14.916 14.1106 15.7039H17.8894C17.8608 14.916 17.7199 14.2253 17.5235 13.6316ZM18.5213 15.7039C18.495 14.9274 18.3665 14.2365 18.1824 13.6316H20.7368V13.6295C21.0932 14.2539 21.3131 14.9571 21.3593 15.7039H18.5213ZM17.8894 16.2961H14.1106C14.1392 17.084 14.2801 17.7747 14.4765 18.3684H17.5235C17.7199 17.7747 17.8608 17.084 17.8894 16.2961ZM18.1824 18.3684C18.3665 17.7635 18.495 17.0726 18.5213 16.2961H21.3593C21.3131 17.0429 21.0932 17.7461 20.7368 18.3705V18.3684H18.1824ZM17.2976 18.9605H14.7024C14.848 19.2955 15.008 19.5911 15.1675 19.8475C15.4323 20.2732 15.6964 20.591 15.8923 20.8009C15.931 20.8425 15.9671 20.8798 16 20.9128C16.0329 20.8798 16.069 20.8425 16.1077 20.8009C16.3036 20.591 16.5677 20.2732 16.8325 19.8475C16.992 19.5911 17.152 19.2955 17.2976 18.9605ZM15.2306 20.9816C15.0461 20.7649 14.8338 20.4863 14.622 20.1459C14.4133 19.8106 14.2053 19.4154 14.0247 18.9605H11.6581C12.4914 20.0327 13.7654 20.7845 15.2306 20.9816ZM11.2632 18.3705V18.3684H13.8176C13.6335 17.7635 13.505 17.0726 13.4787 16.2961H10.6407C10.6869 17.0429 10.9068 17.7461 11.2632 18.3705ZM16.7694 20.9816C16.9539 20.7649 17.1662 20.4863 17.378 20.1459C17.5867 19.8106 17.7947 19.4154 17.9753 18.9605H20.3419C19.5086 20.0327 18.2346 20.7845 16.7694 20.9816ZM20.3419 13.0395H17.9753C17.7947 12.5846 17.5867 12.1894 17.378 11.8541C17.1662 11.5137 16.9539 11.2351 16.7694 11.0184C18.2345 11.2155 19.5086 11.9673 20.3419 13.0395ZM10 16C10 12.8934 12.6863 10.375 16 10.375C19.3137 10.375 22 12.8934 22 16C22 19.1066 19.3137 21.625 16 21.625C12.6863 21.625 10 19.1066 10 16Z" fill="black"/>
</svg>
