<svg width="23" height="23" viewBox="0 0 23 23" fill="none" xmlns="http://www.w3.org/2000/svg">
<g clip-path="url(#clip0_2028_4412)">
<path d="M4.92857 3.8147e-06C7.65055 3.8147e-06 9.85714 2.2066 9.85714 4.92858C9.85714 7.65055 7.65055 9.85715 4.92857 9.85715C2.2066 9.85715 0 7.65055 0 4.92858C0 2.2066 2.2066 3.8147e-06 4.92857 3.8147e-06Z" fill="white"/>
<path d="M18.0714 3.8147e-06C20.7934 3.8147e-06 23 2.2066 23 4.92858C23 7.65055 20.7934 9.85715 18.0714 9.85715C15.3494 9.85715 13.1428 7.65055 13.1428 4.92858C13.1428 2.2066 15.3494 3.8147e-06 18.0714 3.8147e-06Z" fill="white"/>
<path d="M4.92857 13.1429C7.65055 13.1429 9.85714 15.3495 9.85714 18.0714C9.85714 20.7934 7.65055 23 4.92857 23C2.2066 23 0 20.7934 0 18.0714C0 15.3495 2.2066 13.1429 4.92857 13.1429Z" fill="white"/>
<path d="M18.0714 13.1429C20.7934 13.1429 23 15.3495 23 18.0714C23 20.7934 20.7934 23 18.0714 23C15.3494 23 13.1428 20.7934 13.1428 18.0714C13.1428 15.3495 15.3494 13.1429 18.0714 13.1429Z" fill="white"/>
</g>
<defs>
<clipPath id="clip0_2028_4412">
<rect width="23" height="23" fill="white"/>
</clipPath>
</defs>
</svg>
