<svg width="14" height="13" viewBox="0 0 14 13" fill="none" xmlns="http://www.w3.org/2000/svg">
<g clip-path="url(#clip0_2031_4677)">
<path d="M10.7917 1H3.20833C2.4903 1.00079 1.80193 1.26444 1.2942 1.73311C0.786478 2.20178 0.50086 2.8372 0.5 3.5L0.5 9.5C0.50086 10.1628 0.786478 10.7982 1.2942 11.2669C1.80193 11.7356 2.4903 11.9992 3.20833 12H10.7917C11.5097 11.9992 12.1981 11.7356 12.7058 11.2669C13.2135 10.7982 13.4991 10.1628 13.5 9.5V3.5C13.4991 2.8372 13.2135 2.20178 12.7058 1.73311C12.1981 1.26444 11.5097 1.00079 10.7917 1ZM3.20833 2H10.7917C11.116 2.00059 11.4327 2.09076 11.7011 2.2589C11.9695 2.42705 12.1772 2.66547 12.2975 2.9435L8.14942 6.773C7.84415 7.05366 7.43085 7.21123 7 7.21123C6.56915 7.21123 6.15585 7.05366 5.85058 6.773L1.7025 2.9435C1.82283 2.66547 2.03054 2.42705 2.2989 2.2589C2.56726 2.09076 2.88399 2.00059 3.20833 2ZM10.7917 11H3.20833C2.77736 11 2.36403 10.842 2.05928 10.5607C1.75454 10.2794 1.58333 9.89782 1.58333 9.5V4.25L5.08467 7.48C5.59309 7.94813 6.28189 8.21102 7 8.21102C7.71811 8.21102 8.40691 7.94813 8.91533 7.48L12.4167 4.25V9.5C12.4167 9.89782 12.2455 10.2794 11.9407 10.5607C11.636 10.842 11.2226 11 10.7917 11Z" fill="#222222"/>
</g>
<defs>
<clipPath id="clip0_2031_4677">
<rect width="13" height="12" fill="white" transform="translate(0.5 0.5)"/>
</clipPath>
</defs>
</svg>
