<svg width="22" height="22" viewBox="0 0 22 22" fill="none" xmlns="http://www.w3.org/2000/svg">
<g clip-path="url(#clip0_2028_4405)">
<path d="M11.0357 0.00183333C11.0238 0.00183333 11.0119 0 11 0C10.9954 0 10.9918 0 10.9872 0C10.9853 0 10.9844 0 10.9826 0C4.92525 0.0100833 0 4.94083 0 11C0 17.0592 4.93442 22 11 22C17.0656 22 22 17.0656 22 11C22 4.93442 17.0848 0.0210833 11.0357 0.00183333ZM19.9705 6.41667H15.5577C14.5796 3.97008 13.0717 2.03408 12.1376 0.985417C15.5604 1.37133 18.4635 3.47783 19.9714 6.41667H19.9705ZM15.5833 11C15.5833 12.2898 15.3157 13.5236 14.9132 14.6667H7.08675C6.68433 13.5236 6.41667 12.2898 6.41667 11C6.41667 9.71025 6.68433 8.4755 7.08583 7.33333H14.9132C15.3157 8.47642 15.5833 9.71025 15.5833 11ZM14.5548 15.5833C13.4283 18.1848 11.6985 20.1575 11 20.889C10.3015 20.1575 8.57175 18.1848 7.44517 15.5833H14.5539H14.5548ZM7.44425 6.41667C8.57083 3.81242 10.3015 1.84067 11 1.11008C11.6985 1.84158 13.4283 3.81425 14.5548 6.41667H7.44425ZM9.86058 0.985417C8.921 2.03958 7.41492 3.97742 6.44142 6.41667H2.0295C3.53742 3.47875 6.43867 1.37317 9.86058 0.985417ZM1.617 7.33333H6.11233C5.74292 8.47642 5.5 9.70658 5.5 11C5.5 12.2934 5.74292 13.5227 6.11325 14.6667H1.617C1.17058 13.5282 0.916667 12.2943 0.916667 11C0.916667 9.70567 1.17058 8.47183 1.617 7.33333ZM2.0295 15.5833H6.44325C7.42133 18.0299 8.92925 19.9659 9.86333 21.0146C6.4405 20.6287 3.53742 18.5222 2.0295 15.5833ZM12.1367 21.0146C13.0708 19.9659 14.5787 18.029 15.5568 15.5833H19.9696C18.4617 18.5222 15.5595 20.6287 12.1367 21.0146ZM20.383 14.6667H15.8867C16.2571 13.5227 16.5 12.2934 16.5 11C16.5 9.70658 16.2571 8.47733 15.8867 7.33333H20.383C20.8294 8.47183 21.0833 9.70567 21.0833 11C21.0833 12.2943 20.8294 13.5282 20.383 14.6667Z" fill="#222222"/>
</g>
<defs>
<clipPath id="clip0_2028_4405">
<rect width="22" height="22" fill="white"/>
</clipPath>
</defs>
</svg>
