<svg width="32" height="32" viewBox="0 0 32 32" fill="none" xmlns="http://www.w3.org/2000/svg">
<rect x="0.75" y="0.75" width="30.5" height="30.5" rx="15.25" stroke="black" stroke-width="0.5"/>
<path d="M16 11.081C17.602 11.081 17.792 11.087 18.4245 11.116C19.0785 11.146 19.752 11.295 20.2285 11.7715C20.7095 12.2525 20.854 12.9195 20.884 13.5755C20.913 14.208 20.919 14.398 20.919 16C20.919 17.602 20.913 17.792 20.884 18.4245C20.8545 19.075 20.702 19.755 20.2285 20.2285C19.7475 20.7095 19.081 20.854 18.4245 20.884C17.792 20.913 17.602 20.919 16 20.919C14.398 20.919 14.208 20.913 13.5755 20.884C12.93 20.8545 12.241 20.6985 11.7715 20.2285C11.293 19.75 11.146 19.0765 11.116 18.4245C11.087 17.792 11.081 17.602 11.081 16C11.081 14.398 11.087 14.208 11.116 13.5755C11.1455 12.9275 11.2995 12.2435 11.7715 11.7715C12.2515 11.2915 12.921 11.146 13.5755 11.116C14.208 11.087 14.398 11.081 16 11.081ZM16 10C14.3705 10 14.166 10.007 13.526 10.036C12.5985 10.0785 11.6775 10.3365 11.007 11.007C10.334 11.68 10.0785 12.599 10.036 13.526C10.007 14.166 10 14.3705 10 16C10 17.6295 10.007 17.834 10.036 18.474C10.0785 19.4005 10.3375 20.324 11.007 20.993C11.6795 21.6655 12.6 21.9215 13.526 21.964C14.166 21.993 14.3705 22 16 22C17.6295 22 17.834 21.993 18.474 21.964C19.401 21.9215 20.323 21.663 20.993 20.993C21.6665 20.3195 21.9215 19.401 21.964 18.474C21.993 17.834 22 17.6295 22 16C22 14.3705 21.993 14.166 21.964 13.526C21.9215 12.5985 21.663 11.677 20.993 11.007C20.3215 10.3355 19.3985 10.078 18.474 10.036C17.834 10.007 17.6295 10 16 10Z" fill="black"/>
<path d="M15.9999 12.9141C14.2984 12.9141 12.9189 14.2936 12.9189 15.9951C12.9189 17.6966 14.2984 19.0761 15.9999 19.0761C17.7014 19.0761 19.0809 17.6966 19.0809 15.9951C19.0809 14.2936 17.7014 12.9141 15.9999 12.9141ZM15.9999 17.9951C14.8954 17.9951 13.9999 17.0996 13.9999 15.9951C13.9999 14.8906 14.8954 13.9951 15.9999 13.9951C17.1044 13.9951 17.9999 14.8906 17.9999 15.9951C17.9999 17.0996 17.1044 17.9951 15.9999 17.9951Z" fill="black"/>
<path d="M19.2024 13.5181C19.6001 13.5181 19.9224 13.1958 19.9224 12.7981C19.9224 12.4005 19.6001 12.0781 19.2024 12.0781C18.8048 12.0781 18.4824 12.4005 18.4824 12.7981C18.4824 13.1958 18.8048 13.5181 19.2024 13.5181Z" fill="black"/>
</svg>
