<svg width="32" height="32" viewBox="0 0 32 32" fill="none" xmlns="http://www.w3.org/2000/svg">
<rect x="0.75" y="0.75" width="30.5" height="30.5" rx="15.25" stroke="black" stroke-width="0.5"/>
<path d="M10.3897 21.4807H11.9497C12.165 21.4807 12.3394 21.3062 12.3394 21.091V14.2725C12.3394 14.0572 12.165 13.8828 11.9497 13.8828H10.3897C10.1744 13.8828 10 14.0572 10 14.2725V21.091C10 21.3062 10.1744 21.4807 10.3897 21.4807Z" fill="black"/>
<path d="M10.3897 12.6841H11.9497C12.165 12.6841 12.3394 12.5097 12.3394 12.2944V10.9092C12.3394 10.694 12.165 10.5195 11.9497 10.5195H10.3897C10.1744 10.5195 10 10.694 10 10.9092V12.2944C10 12.5097 10.1744 12.6841 10.3897 12.6841Z" fill="black"/>
<path d="M21.4135 14.6743C21.1942 14.3857 20.871 14.1484 20.4436 13.9625C20.0162 13.7766 19.5444 13.6836 19.0282 13.6836C17.9803 13.6836 17.0924 14.0835 16.3645 14.8834C16.2197 15.0426 16.1143 15.0078 16.1143 14.7925V14.2731C16.1143 14.0578 15.9399 13.8834 15.7246 13.8834H14.3311C14.1158 13.8834 13.9414 14.0578 13.9414 14.2731V21.0916C13.9414 21.3068 14.1159 21.4813 14.3311 21.4813H15.8911C16.1064 21.4813 16.2808 21.3068 16.2808 21.0916V18.7203C16.2808 17.7324 16.3405 17.0553 16.4598 16.689C16.5791 16.3227 16.7998 16.0286 17.1217 15.8066C17.4436 15.5846 17.8071 15.4735 18.2123 15.4735C18.5287 15.4735 18.7993 15.5512 19.0241 15.7067C19.2489 15.8621 19.4113 16.0799 19.5112 16.3602C19.6111 16.6405 19.6611 17.2579 19.6611 18.2125V21.0916C19.6611 21.3068 19.8355 21.4813 20.0507 21.4813H21.6108C21.826 21.4813 22.0004 21.3068 22.0004 21.0916V17.2301C22.0004 16.5475 21.9574 16.023 21.8714 15.6567C21.7855 15.2905 21.6328 14.963 21.4135 14.6743Z" fill="black"/>
</svg>
