<svg width="231" height="34" viewBox="0 0 231 34" fill="none" xmlns="http://www.w3.org/2000/svg">
<g clip-path="url(#clip0_657_401)">
<path d="M217.577 22.0836C222.003 25.6406 226.136 28.9437 230.247 32.2254C229.905 32.7336 229.443 32.543 229.056 32.543C225.482 32.543 221.905 32.543 218.331 32.564C217.334 32.564 216.63 32.2889 215.923 31.7172C212.496 28.986 208.944 26.3394 205.589 23.5447C204.154 22.359 202.719 21.872 200.75 21.9355C197.369 22.0626 197.369 21.9778 197.369 24.8785C197.369 26.9322 197.296 28.986 197.394 31.0396C197.442 32.1618 197.151 32.6275 195.74 32.564C193.503 32.4582 191.266 32.4795 189.004 32.564C187.813 32.6065 187.448 32.3101 187.448 31.2514C187.521 26.2546 187.497 21.258 187.448 16.2401C187.448 15.1603 187.715 14.8004 189.028 14.8215C197.467 14.885 205.905 14.8427 214.344 14.8427C216.824 14.8427 216.824 14.8427 216.8 12.6407C216.8 8.8297 217.309 9.23197 212.836 9.23197C204.884 9.23197 196.932 9.21081 188.955 9.25315C187.764 9.25315 187.375 8.97791 187.423 7.91927C187.521 6.37368 187.472 4.82808 187.423 3.30367C187.423 2.56263 187.618 2.2027 188.591 2.2027C199.582 2.22387 210.598 2.2027 221.59 2.24504C223.923 2.24504 226.478 4.46816 226.526 6.52189C226.598 9.88832 226.623 13.2548 226.526 16.6212C226.429 19.3101 223.803 21.3426 220.009 21.8297C219.328 21.9143 218.648 21.9566 217.554 22.0836H217.577Z" fill="white"/>
<path d="M112.136 32.5428C107.783 32.5428 103.844 32.5428 99.9041 32.5428C99.126 32.5428 98.7856 32.0346 98.3478 31.6536C94.773 28.4353 91.2227 25.196 87.6967 21.9353C87.0158 21.3001 86.3349 21.0249 85.3136 21.0461C82.4927 21.1096 79.6475 21.1096 76.8266 21.0461C75.6839 21.0249 75.3677 21.3849 75.3919 22.3375C75.4406 25.2805 75.3434 28.2235 75.4406 31.1665C75.4648 32.3099 75.0272 32.5851 73.8113 32.5428C71.5254 32.458 69.2153 32.5005 66.9294 32.5428C66.0297 32.5428 65.592 32.3945 65.592 31.4841C65.6163 22.0836 65.6163 12.683 65.592 3.28234C65.592 2.37192 66.0297 2.20254 66.9294 2.20254C69.2882 2.24488 71.6228 2.26606 73.9814 2.20254C75.1002 2.18137 75.4648 2.49895 75.4406 3.4729C75.3919 6.56409 75.4406 9.65528 75.3919 12.7253C75.3919 13.6992 75.7081 14.0168 76.8266 13.9957C79.5503 13.9321 82.2739 13.9321 84.9974 13.9957C85.9945 13.9957 86.6754 13.7628 87.3805 13.1276C91.0282 9.76113 94.7246 6.47938 98.3722 3.11295C99.1016 2.43544 99.8556 2.18137 100.877 2.20254C104.5 2.24488 108.124 2.20254 111.82 2.20254C111.771 2.96476 111.139 3.24 110.75 3.62109C106.3 7.79208 101.85 11.9631 97.3265 16.0705C96.2322 17.0445 96.0619 17.6161 97.2535 18.6959C101.801 22.7612 106.227 26.9744 110.701 31.1242C111.09 31.4841 111.455 31.8865 112.112 32.5215L112.136 32.5428Z" fill="white"/>
<path d="M23.4494 23.2483C25.7596 19.4796 27.8996 15.9862 30.0397 12.4927C31.9364 9.4015 33.8332 6.33147 35.6813 3.21912C36.0947 2.49925 36.6054 2.20283 37.5294 2.224C40.0341 2.26635 42.5388 2.28752 45.068 2.224C46.4298 2.18166 46.6241 2.43573 45.9677 3.49436C42.6847 8.851 39.4506 14.2077 36.1919 19.5855C33.8088 23.5024 31.4257 27.4193 29.0913 31.3575C28.6048 32.2043 28.07 32.6278 26.9026 32.5855C24.4952 32.5007 22.0877 32.543 19.7046 32.5855C18.8778 32.5855 18.3671 32.4162 17.9537 31.7174C12.2877 22.2957 6.59738 12.895 0.858413 3.49436C0.299106 2.56277 0.274782 2.224 1.66089 2.24518C4.11697 2.30869 6.57306 2.30869 9.02913 2.24518C10.1478 2.20283 10.7557 2.56277 11.2664 3.40967C15.0113 9.59206 18.8048 15.7744 22.574 21.9568C22.793 22.3167 23.0361 22.6766 23.4494 23.2906V23.2483Z" fill="white"/>
<path d="M149.196 2.2449C154.643 2.2449 160.09 2.26608 165.537 2.2449C166.729 2.2449 167.288 2.43546 167.191 3.62111C167.069 5.1032 167.118 6.60646 167.191 8.10971C167.24 9.02012 166.924 9.31654 165.854 9.29536C162.449 9.23185 159.02 9.3377 155.616 9.25301C154.303 9.23185 153.889 9.52826 153.914 10.7139C153.987 17.5315 153.914 24.3491 153.962 31.1665C153.962 32.2252 153.695 32.6486 152.382 32.6063C150.193 32.5005 148.004 32.5216 145.816 32.6063C144.503 32.6699 144.089 32.331 144.114 31.1455C144.187 24.4126 144.114 17.7009 144.187 10.968C144.187 9.65528 143.895 9.18949 142.29 9.25301C139.104 9.38004 135.894 9.25301 132.684 9.31654C131.614 9.31654 131.152 9.1048 131.201 8.08853C131.298 6.60646 131.298 5.1032 131.201 3.59995C131.128 2.54132 131.566 2.24491 132.757 2.26608C138.253 2.30842 143.749 2.28725 149.245 2.28725L149.196 2.2449Z" fill="white"/>
</g>
<defs>
<clipPath id="clip0_657_401">
<rect width="230" height="33" fill="white" transform="translate(0.5 0.5)"/>
</clipPath>
</defs>
</svg>
