<svg width="230" height="33" viewBox="0 0 230 33" fill="none" xmlns="http://www.w3.org/2000/svg">
<path d="M217.077 21.5836C221.503 25.1406 225.636 28.4437 229.747 31.7254C229.405 32.2336 228.943 32.043 228.556 32.043C224.982 32.043 221.405 32.043 217.831 32.064C216.834 32.064 216.13 31.7889 215.423 31.2172C211.996 28.486 208.444 25.8394 205.089 23.0447C203.654 21.859 202.219 21.372 200.25 21.4355C196.869 21.5626 196.869 21.4778 196.869 24.3785C196.869 26.4322 196.796 28.486 196.894 30.5396C196.942 31.6618 196.651 32.1275 195.24 32.064C193.003 31.9582 190.766 31.9795 188.504 32.064C187.313 32.1065 186.948 31.8101 186.948 30.7514C187.021 25.7546 186.997 20.758 186.948 15.7401C186.948 14.6603 187.215 14.3004 188.528 14.3215C196.967 14.385 205.405 14.3427 213.844 14.3427C216.324 14.3427 216.324 14.3427 216.3 12.1407C216.3 8.3297 216.809 8.73197 212.336 8.73197C204.384 8.73197 196.432 8.71081 188.455 8.75315C187.264 8.75315 186.875 8.47791 186.923 7.41927C187.021 5.87368 186.972 4.32808 186.923 2.80367C186.923 2.06263 187.118 1.7027 188.091 1.7027C199.082 1.72387 210.098 1.7027 221.09 1.74504C223.423 1.74504 225.978 3.96816 226.026 6.02189C226.098 9.38832 226.123 12.7548 226.026 16.1212C225.929 18.8101 223.303 20.8426 219.509 21.3297C218.828 21.4143 218.148 21.4566 217.054 21.5836H217.077Z" fill="#222222"/>
<path d="M111.636 32.0428C107.283 32.0428 103.344 32.0428 99.4041 32.0428C98.626 32.0428 98.2856 31.5346 97.8478 31.1536C94.273 27.9353 90.7228 24.696 87.1967 21.4353C86.5158 20.8001 85.8349 20.5249 84.8136 20.5461C81.9927 20.6096 79.1475 20.6096 76.3266 20.5461C75.1839 20.5249 74.8677 20.8849 74.8919 21.8375C74.9406 24.7805 74.8434 27.7235 74.9406 30.6665C74.9648 31.8099 74.5272 32.0851 73.3113 32.0428C71.0254 31.958 68.7153 32.0005 66.4294 32.0428C65.5297 32.0428 65.092 31.8945 65.092 30.9841C65.1163 21.5836 65.1163 12.183 65.092 2.78234C65.092 1.87192 65.5297 1.70254 66.4294 1.70254C68.7882 1.74488 71.1228 1.76606 73.4814 1.70254C74.6002 1.68137 74.9648 1.99895 74.9406 2.9729C74.8919 6.06409 74.9406 9.15528 74.8919 12.2253C74.8919 13.1992 75.2081 13.5168 76.3266 13.4957C79.0503 13.4321 81.7739 13.4321 84.4974 13.4957C85.4945 13.4957 86.1754 13.2628 86.8805 12.6276C90.5282 9.26113 94.2246 5.97938 97.8722 2.61295C98.6016 1.93544 99.3556 1.68137 100.377 1.70254C104 1.74488 107.624 1.70254 111.32 1.70254C111.271 2.46476 110.639 2.74 110.25 3.12109C105.8 7.29208 101.35 11.4631 96.8265 15.5705C95.7322 16.5445 95.5619 17.1161 96.7535 18.1959C101.301 22.2612 105.727 26.4744 110.201 30.6242C110.59 30.9841 110.955 31.3865 111.612 32.0215L111.636 32.0428Z" fill="#222222"/>
<path d="M22.9494 22.7483C25.2596 18.9796 27.3996 15.4862 29.5397 11.9927C31.4364 8.9015 33.3332 5.83147 35.1813 2.71912C35.5947 1.99925 36.1054 1.70283 37.0294 1.724C39.5341 1.76635 42.0388 1.78752 44.568 1.724C45.9298 1.68166 46.1241 1.93573 45.4677 2.99436C42.1847 8.351 38.9506 13.7077 35.6919 19.0855C33.3088 23.0024 30.9257 26.9193 28.5913 30.8575C28.1048 31.7043 27.57 32.1278 26.4026 32.0855C23.9952 32.0007 21.5877 32.043 19.2046 32.0855C18.3778 32.0855 17.8671 31.9162 17.4537 31.2174C11.7877 21.7957 6.09738 12.395 0.358413 2.99436C-0.200894 2.06277 -0.225218 1.724 1.16089 1.74518C3.61697 1.80869 6.07306 1.80869 8.52913 1.74518C9.64776 1.70283 10.2557 2.06277 10.7664 2.90967C14.5113 9.09206 18.3048 15.2744 22.074 21.4568C22.293 21.8167 22.5361 22.1766 22.9494 22.7906V22.7483Z" fill="#222222"/>
<path d="M148.696 1.7449C154.143 1.7449 159.59 1.76608 165.037 1.7449C166.229 1.7449 166.788 1.93546 166.691 3.12111C166.569 4.6032 166.618 6.10646 166.691 7.60971C166.74 8.52012 166.424 8.81654 165.354 8.79536C161.949 8.73185 158.52 8.8377 155.116 8.75301C153.803 8.73185 153.389 9.02826 153.414 10.2139C153.487 17.0315 153.414 23.8491 153.462 30.6665C153.462 31.7252 153.195 32.1486 151.882 32.1063C149.693 32.0005 147.504 32.0216 145.316 32.1063C144.003 32.1699 143.589 31.831 143.614 30.6455C143.687 23.9126 143.614 17.2009 143.687 10.468C143.687 9.15528 143.395 8.68949 141.79 8.75301C138.604 8.88004 135.394 8.75301 132.184 8.81654C131.114 8.81654 130.652 8.6048 130.701 7.58853C130.798 6.10646 130.798 4.6032 130.701 3.09995C130.628 2.04132 131.066 1.74491 132.257 1.76608C137.753 1.80842 143.249 1.78725 148.745 1.78725L148.696 1.7449Z" fill="#222222"/>
</svg>
