<svg width="69" height="69" viewBox="0 0 69 69" fill="none" xmlns="http://www.w3.org/2000/svg">
<rect x="0.25" y="0.25" width="68.5" height="68.5" rx="34.25" stroke="#464646" stroke-width="0.5"/>
<path d="M14.816 38.5V30.496H16.616L20.552 35.716L19.892 37.108V30.496H21.884V38.5H20.3L16.34 33.412L16.796 32.428V38.5H14.816ZM23.0313 38.5V30.496H28.6113V32.152H25.2153V33.664H28.1433V35.32H25.2033V36.844H28.6113V38.5H23.0313ZM37.128 38.5H34.416L29.004 30.496H31.716L37.128 38.5ZM33.048 33.376L34.668 30.496H37.032L34.164 34.972L33.048 33.376ZM33.36 35.212L31.464 38.5H29.124L32.28 33.7L33.36 35.212ZM39.2067 38.5V32.152H37.0707V30.496H43.5387V32.152H41.3667V38.5H39.2067Z" fill="#272727"/>
<path fill-rule="evenodd" clip-rule="evenodd" d="M50.1839 30L55 34.5567L50.3034 39L49.1195 37.8799L52.6326 34.5567L49 31.1201L50.1839 30Z" fill="black"/>
</svg>
