<svg width="19" height="19" viewBox="0 0 19 19" fill="none" xmlns="http://www.w3.org/2000/svg">
<rect x="0.850006" y="0.019043" width="18" height="18" rx="9" fill="#019C9C"/>
<path d="M14.7023 10.4379C14.406 10.12 13.7989 9.9363 12.9387 9.9363C12.3811 9.94005 11.8393 9.99588 11.3142 10.1L11.3687 10.0909C11.022 9.74797 10.7058 9.37674 10.4228 8.97967L10.4053 8.95384C10.2131 8.68385 10.0167 8.37094 9.83815 8.04721L9.81276 7.99679C10.0887 7.24391 10.2697 6.37394 10.3154 5.46815L10.3163 5.4469C10.3163 4.74776 10.0658 4.01904 9.33921 4.01904C9.09993 4.02738 8.8927 4.1582 8.77743 4.35028L8.77577 4.3532C8.44869 4.94192 8.59642 6.23145 9.15861 7.50515C8.94971 8.14054 8.72667 8.74801 8.44869 9.42798C8.20734 10.0034 7.92936 10.5959 7.64598 11.1421C6.01517 11.8058 4.96028 12.5795 4.86166 13.1853C4.85417 13.2228 4.85001 13.2657 4.85001 13.3099C4.85001 13.4986 4.92741 13.6691 5.05224 13.7911C5.21537 13.9328 5.42967 14.019 5.66395 14.019H5.67061C6.75213 14.019 7.89149 12.2299 8.47033 11.1512C8.91517 11.0008 9.3596 10.8642 9.80361 10.7271C10.2913 10.5921 10.7807 10.4834 11.223 10.4071C12.3649 11.4521 13.3715 11.6196 13.8775 11.6196C14.5005 11.6196 14.7227 11.3617 14.7959 11.1504C14.83 11.0692 14.85 10.975 14.85 10.8758C14.85 10.7038 14.7901 10.5459 14.6898 10.4217L14.691 10.4229L14.6994 10.4396L14.7023 10.4379ZM14.1239 10.8788C14.0573 11.1021 13.8542 11.2621 13.6137 11.2621C13.5896 11.2621 13.5658 11.2604 13.5425 11.2575L13.5454 11.2579C13.4547 11.2546 13.3686 11.2437 13.2849 11.2262L13.2949 11.2279C12.6616 11.06 12.114 10.755 11.6633 10.3446L11.6666 10.3475C12.0391 10.2809 12.4677 10.2429 12.905 10.2429H12.9113H12.9108C12.9454 10.2417 12.9857 10.2409 13.0265 10.2409C13.2529 10.2409 13.4743 10.2634 13.6878 10.3067L13.6665 10.3029C13.8713 10.3471 14.1967 10.4846 14.1239 10.88H14.1322L14.1239 10.8788ZM10.9821 10.165C10.598 10.2446 10.1831 10.3379 9.75284 10.4546C9.41203 10.5479 9.05707 10.6529 8.70087 10.7767C8.89437 10.4004 9.05749 10.035 9.20521 9.68964C9.38373 9.26341 9.53104 8.82426 9.67918 8.41636C9.82525 8.67135 9.98795 8.9305 10.1511 9.16049C10.4261 9.53673 10.697 9.86672 10.9854 10.1805L10.9779 10.1721V10.1638L10.9821 10.165ZM9.04084 4.52777C9.09328 4.42153 9.1998 4.34861 9.32339 4.3457H9.32381C9.63466 4.3457 9.69417 4.7086 9.69417 4.99775C9.64714 5.75522 9.50441 6.46269 9.27637 7.13141L9.29343 7.07433C8.84984 5.89563 8.81946 4.90901 9.04292 4.5286L9.04084 4.52777ZM7.41253 11.5929C6.65601 12.8637 5.93028 13.6536 5.48585 13.6536C5.40263 13.6528 5.32647 13.6241 5.26572 13.5766L5.26655 13.577C5.19789 13.517 5.15503 13.4291 5.15503 13.3316C5.15503 13.3062 5.15794 13.2812 5.16335 13.2574L5.16294 13.2595C5.25199 12.8037 6.09631 12.167 7.41419 11.5916L7.41253 11.5929Z" fill="white"/>
</svg>
