<svg width="14" height="13" viewBox="0 0 14 13" fill="none" xmlns="http://www.w3.org/2000/svg">
<path d="M8.61283 3.80261V1.6335C8.61283 1.48968 8.66997 1.35175 8.77166 1.25005C8.87336 1.14835 9.01129 1.09122 9.15511 1.09122C9.29893 1.09122 9.43686 1.14835 9.53856 1.25005C9.64026 1.35175 9.69739 1.48968 9.69739 1.6335V3.04939C10.039 2.70558 12.2466 0.48658 12.5677 0.165551C12.6177 0.113758 12.6775 0.0724461 12.7437 0.0440258C12.8098 0.0156056 12.881 0.000646164 12.953 2.04747e-05C13.025 -0.000605215 13.0964 0.0131153 13.1631 0.0403816C13.2297 0.0676478 13.2903 0.107914 13.3412 0.15883C13.3921 0.209746 13.4324 0.270292 13.4596 0.336936C13.4869 0.40358 13.5006 0.474987 13.5 0.54699C13.4994 0.618994 13.4844 0.690151 13.456 0.756311C13.4276 0.822471 13.3862 0.882309 13.3344 0.932332C13.0134 1.25336 10.8172 3.46206 10.4777 3.80261H11.8665C12.0103 3.80261 12.1483 3.85974 12.25 3.96144C12.3516 4.06314 12.4088 4.20107 12.4088 4.34489C12.4088 4.48871 12.3516 4.62664 12.25 4.72834C12.1483 4.83003 12.0103 4.88717 11.8665 4.88717H9.69739C9.40975 4.88717 9.13389 4.7729 8.93049 4.56951C8.7271 4.36611 8.61283 4.09025 8.61283 3.80261ZM13.0026 9.08386C13.3168 9.39898 13.4933 9.82586 13.4933 10.2709C13.4933 10.7159 13.3168 11.1428 13.0026 11.458L12.508 12.0273C8.06622 16.2777 -2.7403 5.47445 1.44554 1.0191L2.06916 0.476819C2.38457 0.17127 2.8076 0.00218379 3.24672 0.00614167C3.68584 0.0100995 4.10575 0.186783 4.4156 0.497968C4.43241 0.514236 5.43671 1.82004 5.43671 1.82004C5.73383 2.13377 5.89916 2.54961 5.89855 2.98171C5.89795 3.41381 5.73146 3.82918 5.43346 4.14208L4.8055 4.93163C5.15309 5.77597 5.66406 6.54333 6.30907 7.18964C6.95407 7.83594 7.72039 8.34846 8.56403 8.69775L9.35847 8.066C9.67074 7.76721 10.0861 7.60017 10.5183 7.59956C10.9505 7.59896 11.3663 7.76483 11.6794 8.06275C11.6794 8.06275 12.9858 9.06759 13.0026 9.08386ZM12.2569 9.87233C12.2569 9.87233 10.9593 8.87345 10.9425 8.85718C10.8307 8.74641 10.6798 8.68426 10.5225 8.68426C10.3651 8.68426 10.2142 8.74641 10.1025 8.85718C10.0878 8.87128 8.99406 9.74327 8.99406 9.74327C8.92035 9.80194 8.83263 9.84039 8.73954 9.85485C8.64644 9.8693 8.55119 9.85925 8.46316 9.82569C7.36962 9.41884 6.37633 8.78162 5.55064 7.95724C4.72495 7.13285 4.08615 6.14058 3.67756 5.04768C3.64134 4.95845 3.62953 4.86119 3.64334 4.76588C3.65716 4.67057 3.69611 4.58067 3.75619 4.5054C3.75619 4.5054 4.62817 3.41325 4.64282 3.39916C4.75359 3.28744 4.81574 3.13648 4.81574 2.97916C4.81574 2.82184 4.75359 2.67088 4.64282 2.55917C4.62655 2.5429 3.62767 1.24414 3.62767 1.24414C3.51428 1.14247 3.36629 1.08802 3.21405 1.09195C3.0618 1.09588 2.91682 1.1579 2.80883 1.26529L2.18521 1.80757C-0.874322 5.48584 8.49191 14.3326 11.7147 11.2882L12.2092 10.7183C12.3258 10.6113 12.396 10.463 12.405 10.305C12.4139 10.147 12.3608 9.99176 12.2569 9.87233Z" fill="#222222"/>
</svg>
