<svg width="221" height="483" viewBox="0 0 221 483" fill="none" xmlns="http://www.w3.org/2000/svg">
<g clip-path="url(#clip0_1774_3049)">
<path d="M0.68092 179.617L-0.211115 477.736L-1.10309 179.617H0.68092Z" fill="#CCCCCC"/>
<path d="M109.315 2.63281L108.423 61.628L107.531 2.63281H109.315Z" fill="#CCCCCC"/>
<path d="M54.3023 241.5L53.4102 360.934L52.5182 241.5H54.3023Z" fill="#CCCCCC"/>
<path d="M0.680978 5.26562L-0.211048 179.619L-1.10303 5.26562H0.680978Z" fill="#CCCCCC"/>
<path d="M163.347 122.678L108.429 179.617L162.044 121.453L163.347 122.678Z" fill="#CCCCCC"/>
<path d="M109.095 180.209L53.4103 241.498L107.757 179.027L109.095 180.209Z" fill="#CCCCCC"/>
<path d="M109.095 179.027L162.699 241.498L107.757 180.204L109.095 179.027Z" fill="#CCCCCC"/>
<path d="M163.346 121.453L218.366 181.054L162.044 122.678L163.346 121.453Z" fill="#CCCCCC"/>
<path d="M109.315 63.4258L108.423 179.616L107.531 63.4258H109.315Z" fill="#CCCCCC"/>
<path d="M0.44303 179.035L53.4103 241.5L-0.90686 180.2L0.44303 179.035Z" fill="#CCCCCC"/>
<path d="M54.0644 2.02734L108.429 61.6286L52.7621 3.24528L54.0644 2.02734Z" fill="#CCCCCC"/>
<path d="M163.353 3.23727L108.429 61.6265L162.039 2.03125L163.353 3.23727Z" fill="#CCCCCC"/>
<path d="M109.083 62.2256L-0.21106 179.616L107.769 61.0195L109.083 62.2256Z" fill="#CCCCCC"/>
<path d="M109.09 61.0273L162.699 122.066L107.763 62.2215L109.09 61.0273Z" fill="#CCCCCC"/>
<path d="M219.02 62.2256L162.699 122.064L217.712 61.0195L219.02 62.2256Z" fill="#CCCCCC"/>
<path d="M53.4103 358.301C51.9553 358.301 50.7758 359.48 50.7758 360.933C50.7758 362.386 51.9553 363.566 53.4103 363.566C54.8652 363.566 56.0446 362.386 56.0446 360.933C56.0446 359.48 54.8652 358.301 53.4103 358.301Z" fill="white"/>
<path d="M-0.199223 477.734C-1.65416 477.734 -2.83362 478.913 -2.83362 480.366C-2.83362 481.82 -1.65416 482.998 -0.199224 482.998C1.25571 482.998 2.43515 481.82 2.43515 480.366C2.43515 478.913 1.25571 477.734 -0.199223 477.734Z" fill="white"/>
<path d="M162.699 238.867C161.244 238.867 160.065 240.045 160.065 241.499C160.065 242.953 161.244 244.131 162.699 244.131C164.154 244.131 165.333 242.953 165.333 241.499C165.333 240.045 164.154 238.867 162.699 238.867Z" fill="white"/>
<path d="M53.4103 238.867C51.9553 238.867 50.7758 240.045 50.7758 241.499C50.7758 242.953 51.9553 244.131 53.4103 244.131C54.8652 244.131 56.0446 242.953 56.0446 241.499C56.0446 240.045 54.8652 238.867 53.4103 238.867Z" fill="white"/>
<path d="M53.4103 358.301C51.9553 358.301 50.7758 359.48 50.7758 360.933C50.7758 362.386 51.9553 363.566 53.4103 363.566C54.8652 363.566 56.0446 362.386 56.0446 360.933C56.0446 359.48 54.8652 358.301 53.4103 358.301Z" fill="white"/>
<path d="M108.429 297.859C106.974 297.859 105.794 299.038 105.794 300.491C105.794 301.945 106.974 303.123 108.429 303.123C109.884 303.123 111.063 301.945 111.063 300.491C111.063 299.038 109.884 297.859 108.429 297.859Z" fill="white"/>
<path d="M162.699 119.434C161.244 119.434 160.065 120.613 160.065 122.065C160.065 123.519 161.244 124.698 162.699 124.698C164.154 124.698 165.333 123.519 165.333 122.065C165.333 120.613 164.154 119.434 162.699 119.434Z" fill="white"/>
<path d="M108.429 176.984C106.974 176.984 105.794 178.163 105.794 179.616C105.794 181.07 106.974 182.248 108.429 182.248C109.884 182.248 111.063 181.07 111.063 179.616C111.063 178.163 109.884 176.984 108.429 176.984Z" fill="white"/>
<path d="M-0.211055 176.984C-1.66599 176.984 -2.84546 178.163 -2.84546 179.616C-2.84546 181.07 -1.66599 182.248 -0.211056 182.248C1.24388 182.248 2.42332 181.07 2.42332 179.616C2.42332 178.163 1.24388 176.984 -0.211055 176.984Z" fill="white"/>
<path d="M162.699 238.867C161.244 238.867 160.065 240.045 160.065 241.499C160.065 242.953 161.244 244.131 162.699 244.131C164.154 244.131 165.333 242.953 165.333 241.499C165.333 240.045 164.154 238.867 162.699 238.867Z" fill="white"/>
<path d="M162.699 0C161.244 -1.27001e-07 160.065 1.17836 160.065 2.63193C160.065 4.08549 161.244 5.26382 162.699 5.26382C164.154 5.26382 165.333 4.08549 165.333 2.63193C165.333 1.17836 164.154 1.27001e-07 162.699 0Z" fill="white"/>
<path d="M-0.211049 0C-1.66598 -1.27001e-07 -2.84546 1.17836 -2.84546 2.63192C-2.84546 4.08549 -1.66598 5.26382 -0.211049 5.26382C1.24389 5.26382 2.42332 4.08549 2.42332 2.63192C2.42333 1.17836 1.24389 1.27001e-07 -0.211049 0Z" fill="white"/>
<path d="M108.429 0C106.974 -1.27001e-07 105.794 1.17836 105.794 2.63192C105.794 4.08549 106.974 5.26382 108.429 5.26382C109.884 5.26382 111.063 4.08549 111.063 2.63192C111.063 1.17836 109.884 1.27001e-07 108.429 0Z" fill="white"/>
<path d="M53.4103 0C51.9554 -1.27001e-07 50.7759 1.17836 50.7759 2.63193C50.7759 4.08549 51.9554 5.26382 53.4103 5.26382C54.8652 5.26382 56.0447 4.08549 56.0447 2.63193C56.0447 1.17836 54.8652 1.27001e-07 53.4103 0Z" fill="white"/>
<path d="M162.699 119.434C161.244 119.434 160.065 120.613 160.065 122.065C160.065 123.519 161.244 124.698 162.699 124.698C164.154 124.698 165.333 123.519 165.333 122.065C165.333 120.613 164.154 119.434 162.699 119.434Z" fill="white"/>
<path d="M108.429 58.9961C106.974 58.9961 105.794 60.1745 105.794 61.6281C105.794 63.0816 106.974 64.2599 108.429 64.2599C109.884 64.2599 111.063 63.0816 111.063 61.6281C111.063 60.1745 109.884 58.9961 108.429 58.9961Z" fill="white"/>
<path d="M218.366 58.9961C216.911 58.9961 215.731 60.1745 215.731 61.6281C215.731 63.0816 216.911 64.2599 218.366 64.2599C219.821 64.2599 221 63.0816 221 61.6281C221 60.1745 219.821 58.9961 218.366 58.9961Z" fill="white"/>
<path d="M218.366 178.422C216.911 178.422 215.731 179.6 215.731 181.054C215.731 182.507 216.911 183.686 218.366 183.686C219.821 183.686 221 182.507 221 181.054C221 179.6 219.821 178.422 218.366 178.422Z" fill="white"/>
</g>
<defs>
<clipPath id="clip0_1774_3049">
<rect width="221" height="483" fill="white"/>
</clipPath>
</defs>
</svg>
