<svg width="25" height="26" viewBox="0 0 25 26" fill="none" xmlns="http://www.w3.org/2000/svg">
<rect x="0.25" y="0.416504" width="24.5" height="24.5" rx="12.25" stroke="black" stroke-width="0.5"/>
<path fill-rule="evenodd" clip-rule="evenodd" d="M15.6174 16.6649C16.8848 16.7128 17.9505 15.6865 18 14.3704V10.9626C17.9505 9.64651 16.8848 8.6202 15.6174 8.66812H9.3826C8.1152 8.6202 7.04949 9.64651 7 10.9626V14.3704C7.04949 15.6865 8.1152 16.7128 9.3826 16.6649H15.6174Z" stroke="black" stroke-linecap="round" stroke-linejoin="round"/>
<path fill-rule="evenodd" clip-rule="evenodd" d="M12.2065 10.7833L14.7354 12.2151C14.8993 12.2949 15 12.4411 15 12.5991C15 12.7572 14.8993 12.9034 14.7354 12.9831L12.2065 14.5497C11.7264 14.821 11 14.5896 11 14.1657V11.1659C11 10.7439 11.7272 10.512 12.2065 10.7833Z" stroke="black" stroke-linecap="round" stroke-linejoin="round"/>
</svg>
